<svg xmlns="http://www.w3.org/2000/svg" xmlns:xlink="http://www.w3.org/1999/xlink" width="40" zoomAndPan="magnify" viewBox="0 0 30 30.000001" height="40" preserveAspectRatio="xMidYMid meet" version="1.2"><defs><clipPath id="024c4f3826"><path d="M 2.296875 5.0625 L 23.238281 5.0625 L 23.238281 26.464844 L 2.296875 26.464844 Z M 2.296875 5.0625 "/></clipPath><clipPath id="b044013b4c"><path d="M 21.152344 5.652344 L 27.699219 5.652344 L 27.699219 9.632812 L 21.152344 9.632812 Z M 21.152344 5.652344 "/></clipPath><clipPath id="aae5b90b22"><path d="M 20 2.179688 L 25 2.179688 L 25 9 L 20 9 Z M 20 2.179688 "/></clipPath></defs><g id="7196285275"><g clip-rule="nonzero" clip-path="url(#024c4f3826)"><path style=" stroke:none;fill-rule:nonzero;fill:#a0183f;fill-opacity:1;" d="M 19.363281 9.898438 C 23.507812 14.652344 24.625 19.664062 21.082031 23.410156 C 16.347656 28.414062 9.210938 26.734375 5.347656 22.25 C 1.230469 17.476562 0.640625 9.976562 7.621094 5.542969 C 9.261719 4.5 15.214844 5.148438 19.363281 9.898438 "/></g><path style=" stroke:none;fill-rule:nonzero;fill:#f0313d;fill-opacity:1;" d="M 20.386719 9.082031 C 24.472656 13.761719 24.71875 20.234375 20.9375 23.535156 C 17.15625 26.839844 10.777344 25.726562 6.691406 21.042969 C 2.605469 16.363281 2.359375 9.890625 6.144531 6.589844 C 9.925781 3.285156 16.300781 4.402344 20.386719 9.082031 "/><path style=" stroke:none;fill-rule:nonzero;fill:#ffffff;fill-opacity:1;" d="M 19.015625 10.277344 C 22.285156 14.019531 22.480469 19.199219 19.457031 21.84375 C 16.429688 24.484375 11.328125 23.59375 8.0625 19.847656 C 4.792969 16.105469 4.597656 10.925781 7.621094 8.285156 C 10.648438 5.640625 15.75 6.535156 19.015625 10.277344 "/><path style=" stroke:none;fill-rule:nonzero;fill:#f0313d;fill-opacity:1;" d="M 17.648438 11.472656 C 20.097656 14.28125 20.246094 18.164062 17.976562 20.148438 C 15.707031 22.128906 11.882812 21.460938 9.429688 18.652344 C 6.980469 15.84375 6.832031 11.960938 9.101562 9.976562 C 11.371094 7.996094 15.195312 8.664062 17.648438 11.472656 "/><path style=" stroke:none;fill-rule:nonzero;fill:#ffffff;fill-opacity:1;" d="M 16.261719 12.683594 C 17.894531 14.558594 17.992188 17.144531 16.480469 18.46875 C 14.96875 19.789062 12.417969 19.34375 10.785156 17.46875 C 9.148438 15.597656 9.050781 13.007812 10.5625 11.6875 C 12.078125 10.367188 14.628906 10.8125 16.261719 12.683594 "/><path style=" stroke:none;fill-rule:nonzero;fill:#f0313d;fill-opacity:1;" d="M 14.910156 13.867188 C 15.726562 14.800781 15.773438 16.097656 15.019531 16.757812 C 14.261719 17.417969 12.988281 17.195312 12.167969 16.257812 C 11.351562 15.324219 11.304688 14.027344 12.058594 13.367188 C 12.816406 12.707031 14.089844 12.929688 14.910156 13.867188 "/><g clip-rule="nonzero" clip-path="url(#b044013b4c)"><path style=" stroke:none;fill-rule:nonzero;fill:#999999;fill-opacity:1;" d="M 27.699219 6.363281 L 26.34375 7.550781 L 24.230469 7.015625 L 25.761719 7.742188 L 24.710938 8.664062 L 23 8.246094 L 24.074219 8.796875 L 23.175781 9.582031 L 21.164062 9.042969 L 25.140625 5.714844 L 27.699219 6.363281 "/></g><g clip-rule="nonzero" clip-path="url(#aae5b90b22)"><path style=" stroke:none;fill-rule:nonzero;fill:#999999;fill-opacity:1;" d="M 23.976562 2.191406 L 24.273438 4.765625 L 20.4375 8.164062 L 20.1875 6.25 L 21.085938 5.464844 L 21.488281 6.601562 L 21.300781 4.851562 L 22.351562 3.929688 L 22.871094 5.542969 L 22.621094 3.378906 L 23.976562 2.191406 "/></g><path style=" stroke:none;fill-rule:nonzero;fill:#d9d9d9;fill-opacity:1;" d="M 21.492188 23 L 21.492188 23 M 21.75 22.703125 L 21.753906 22.703125 L 21.75 22.703125 M 21.867188 22.5625 L 21.867188 22.5625 "/><path style=" stroke:none;fill-rule:nonzero;fill:#cc2a34;fill-opacity:1;" d="M 21.273438 23.222656 L 19.683594 21.632812 C 19.976562 21.347656 20.234375 21.042969 20.460938 20.710938 L 22.058594 22.3125 L 21.964844 22.4375 L 21.867188 22.5625 L 21.753906 22.703125 L 21.75 22.703125 L 21.492188 23 L 21.273438 23.222656 "/><path style=" stroke:none;fill-rule:nonzero;fill:#d9d9d9;fill-opacity:1;" d="M 19.683594 21.632812 L 18.09375 20.039062 C 18.394531 19.761719 18.644531 19.445312 18.855469 19.105469 L 20.460938 20.710938 C 20.234375 21.042969 19.976562 21.347656 19.683594 21.632812 "/><path style=" stroke:none;fill-rule:nonzero;fill:#cc2a34;fill-opacity:1;" d="M 18.09375 20.039062 L 16.503906 18.445312 C 16.8125 18.171875 17.054688 17.839844 17.226562 17.476562 L 18.855469 19.105469 C 18.644531 19.445312 18.394531 19.761719 18.09375 20.039062 "/><path style=" stroke:none;fill-rule:nonzero;fill:#d9d9d9;fill-opacity:1;" d="M 16.503906 18.445312 L 14.90625 16.847656 C 14.945312 16.820312 14.980469 16.789062 15.019531 16.757812 C 15.304688 16.507812 15.476562 16.164062 15.535156 15.78125 L 17.226562 17.476562 C 17.054688 17.839844 16.8125 18.171875 16.503906 18.445312 "/><path style=" stroke:none;fill-rule:nonzero;fill:#cc2a34;fill-opacity:1;" d="M 14.90625 16.847656 L 13.402344 15.339844 C 13.457031 15.386719 13.515625 15.425781 13.578125 15.457031 C 13.695312 15.519531 13.832031 15.558594 13.976562 15.5625 L 14.691406 14.9375 L 15.535156 15.78125 C 15.476562 16.164062 15.304688 16.507812 15.019531 16.757812 C 14.980469 16.789062 14.945312 16.820312 14.90625 16.847656 "/><path style=" stroke:none;fill-rule:nonzero;fill:#cccccc;fill-opacity:1;" d="M 26.390625 4.695312 L 13.976562 15.5625 C 13.425781 15.539062 13.007812 15.0625 13.058594 14.515625 L 25.476562 3.644531 L 26.390625 4.695312 "/><path style=" stroke:none;fill-rule:nonzero;fill:#d9d9d9;fill-opacity:1;" d="M 26.390625 4.695312 L 25.933594 4.167969 L 26.390625 4.695312 "/><path style=" stroke:none;fill-rule:nonzero;fill:#ae242c;fill-opacity:1;" d="M 13.976562 15.5625 C 13.832031 15.558594 13.695312 15.519531 13.578125 15.457031 C 13.695312 15.519531 13.832031 15.558594 13.976562 15.5625 L 14.691406 14.9375 L 13.976562 15.5625 "/><path style=" stroke:none;fill-rule:nonzero;fill:#aeaeae;fill-opacity:1;" d="M 13.976562 15.5625 C 13.832031 15.558594 13.695312 15.519531 13.578125 15.457031 C 13.46875 15.402344 13.371094 15.328125 13.292969 15.234375 L 25.933594 4.167969 L 26.390625 4.695312 L 25.207031 5.730469 L 21.363281 9.09375 L 14.691406 14.9375 L 13.976562 15.5625 "/><path style=" stroke:none;fill-rule:nonzero;fill:#999999;fill-opacity:1;" d="M 26.238281 3.902344 C 26.492188 4.191406 26.5625 4.546875 26.390625 4.695312 C 26.222656 4.839844 25.882812 4.726562 25.628906 4.4375 C 25.375 4.148438 25.304688 3.792969 25.476562 3.644531 C 25.644531 3.496094 25.984375 3.613281 26.238281 3.902344 "/><path style=" stroke:none;fill-rule:nonzero;fill:#808080;fill-opacity:1;" d="M 26.351562 6.019531 L 25.210938 5.730469 L 21.371094 9.097656 L 22.496094 9.398438 L 23.511719 8.507812 L 23 8.246094 L 23.636719 8.402344 L 24.871094 7.320312 L 24.230469 7.015625 L 24.996094 7.207031 L 26.351562 6.019531 "/></g></svg>